<?xml version="1.0" encoding="utf-8" ?><svg xmlns="http://www.w3.org/2000/svg" xmlns:xlink="http://www.w3.org/1999/xlink" width="3438" height="830" viewBox="0 0 3438 830"><path fill="#FEFEFE" d="M439.081 123.236L529.941 123.28C540.708 155.464 546.941 177.069 552.005 210.386C576.755 217.648 590.204 222.711 613.622 233.104C636.724 217.648 663.296 203.371 688.152 190.818C709.529 212.364 731.016 233.799 752.613 255.124C741.262 277.075 727.935 302.769 713.945 323.001C727.304 343.077 738.99 365.881 745.795 389.058C781.289 395.657 804.584 401.352 838.388 413.575C836.665 444.672 837.444 473.099 837.009 503.974C813.463 514.057 775.056 522.397 749.588 528.483C742.387 559.161 730.507 578.619 715.374 605.527C730.985 624.042 750.168 653.953 761.501 675.287C756.4 682.301 745.158 694.464 739.013 701.5C726.976 715.283 714.374 730.318 701.826 743.481C670.09 730.442 640.776 715.18 610.904 698.485C589.379 708.524 575.725 713.246 553.119 719.696C551.796 732.192 536.948 809.919 527.89 814.748L438.984 814.709C432.887 795.327 427.455 775.742 422.696 755.989C419.914 744.662 416.958 729.692 413.415 718.999C391.838 712.894 375.435 706.222 354.922 697.002C334.878 711.601 294.462 735.51 273.107 746.065C254.149 729.463 227.526 702.122 208.696 684.093C219.436 655.326 236.081 628.847 252.295 602.958C235.578 575.497 229.277 558.149 219.641 527.985C191.204 522.001 159.503 514.07 132.48 504.094C131.966 474.593 132.253 442.947 132.533 413.41C159.695 402.613 195.08 394.036 223.803 389.476C229.648 368.094 241.485 345.311 253.146 326.618C239.313 303.477 226.294 279.858 214.116 255.804C234.561 237.832 259.603 212.002 279.054 192.527C303.57 202.998 329.91 221.367 353.081 234.893C376.194 222.26 392.569 219.3 416.083 210.314C423.98 178.267 428.382 155.498 439.081 123.236ZM492.497 548.022C537.025 543.832 569.785 504.429 565.775 459.884C561.764 415.339 522.492 382.421 477.931 386.253C433.116 390.106 399.97 429.651 404.004 474.45C408.037 519.248 447.715 552.236 492.497 548.022Z"/><path fill="#FEFEFE" d="M2598.43 185.901C2614.26 185.178 2632.08 185.598 2648.07 185.646C2683.81 265.9 2716.27 349.621 2752.48 429.506C2766.1 412.881 2783.59 383.115 2797.31 364.473C2803.9 355.522 2830.14 318.343 2834.03 310.131C2833.19 303.827 2762.2 202.688 2751.66 187.127L2814.67 187.12C2828.85 209.553 2852.53 247.253 2867.45 267.639C2872.71 261.598 2881.86 246.945 2886.56 239.776C2897.96 222.158 2909.53 204.653 2921.27 187.262C2941.21 186.901 2962.22 187.229 2982.26 187.222C2976.35 194.344 2964.59 212.572 2958.73 221.166C2942.44 245.482 2925.85 269.596 2908.97 293.501C2905.04 298.359 2902.01 303.603 2898.77 308.927C2907.05 322.656 2918.91 337.25 2927.93 350.916C2946.95 379.746 2965.97 408.114 2985.93 436.327L2922.43 436.313C2907.76 411.408 2882.81 376.243 2866.37 351.665C2861.7 356.258 2851.73 372.248 2847.66 378.403C2834.9 397.577 2822.37 416.903 2810.07 436.376L2698.13 436.255C2691.74 418.659 2682.77 397.665 2675.17 380.608C2644.86 379.084 2600.31 380.391 2569.34 380.54C2562.26 399.182 2554.09 416.826 2547.13 436.179C2528.96 436.263 2510.11 436.607 2492 436.047C2503.08 406.067 2517.52 374.462 2530.24 345.14L2562.16 269.53C2574.35 241.33 2586.67 214.582 2598.43 185.901ZM2588.84 332.118L2622.5 332.151L2656.06 332.121C2650.44 319.983 2627.8 258.503 2622.13 252.559C2611.39 272.986 2599.97 308.828 2588.84 332.118Z"/><path fill="#FEFEFE" d="M2145.14 181.655C2217.02 173.538 2281.87 225.236 2289.98 297.122C2298.09 369.008 2246.39 433.856 2174.5 441.959C2102.63 450.061 2037.79 398.365 2029.68 326.489C2021.57 254.614 2073.26 189.771 2145.14 181.655ZM2170.53 388.409C2212.95 382.393 2242.4 343.056 2236.24 300.661C2230.07 258.267 2190.62 228.955 2148.25 235.277C2106.1 241.567 2076.96 280.766 2083.1 322.944C2089.24 365.123 2128.33 394.395 2170.53 388.409Z"/><path fill="#AEE95B" d="M3361.28 619.224C3373.92 618.461 3384.86 619.701 3395.84 626.479C3407.48 633.774 3415.71 645.429 3418.69 658.837C3421.57 671.859 3419.14 685.493 3411.92 696.711C3403.09 710.589 3390.98 716.102 3375.58 719.557C3376.96 744.238 3379.2 780.569 3360.74 798.907C3342.86 816.669 3317.26 813.092 3294.21 813.055L3231.76 812.984L3037.2 812.875L2431.57 812.874L563.5 813.108L546.671 813.033C549.061 809.567 551.749 804.753 553.958 801.042L3323.54 801.285C3370.93 801.007 3364.55 753.616 3364.21 720.01C3343.87 715.282 3328.36 705.908 3321.45 685.081C3317.19 672.361 3318.25 658.462 3324.38 646.532C3332.7 630.173 3344.84 624.545 3361.28 619.224Z"/><path fill="#AEE95B" d="M792.813 114.342C822.341 113.005 861.093 114.207 891.641 114.22L1085.8 114.293L1675.21 114.309L3301.62 114.166C3374.26 114.601 3371.08 145.732 3370.63 207.84C3379.45 209.822 3385.75 211.715 3393.28 217.006C3404.46 224.822 3412.06 236.773 3414.39 250.21C3416.6 263.383 3413.47 276.893 3405.69 287.749C3396.34 300.737 3384.48 306.139 3369.18 308.629C3326.32 311.124 3300.15 268.112 3322.22 231.003C3330.97 216.284 3343.13 211.46 3359.27 207.757C3359.47 174.713 3366.11 127.526 3318.09 126.338C3289.35 125.626 3260.28 126.329 3231.51 126.329L3052.41 126.31L2501.13 126.258L803.993 126.434L792.813 114.342Z"/><path fill="#FEFEFE" d="M1423.66 185.417C1439.86 185.344 1456.05 185.366 1472.25 185.482C1477.09 195.761 1482.05 207.121 1486.37 217.679C1516.24 290.689 1550.33 363.04 1579.33 436.291L1523.19 436.225C1515.23 418.817 1507.1 398.599 1500.08 380.702C1490.59 380.306 1479.14 380.56 1469.5 380.526L1393.88 380.539C1387.4 397.89 1377.98 418.781 1370.67 436.041C1354.45 436.859 1332.34 436.274 1315.66 436.26C1345.34 370.728 1371.83 302.142 1401.21 236.362C1404.75 228.429 1420.08 190.056 1423.66 185.417ZM1413.66 331.952L1448.5 332.038C1458.88 332.006 1469.68 332.134 1480.02 331.931C1475.76 321.131 1452.19 258.967 1446.26 253.605C1434.65 279.257 1425.04 306.052 1413.66 331.952Z"/><path fill="#FEFEFE" d="M1748.14 187.174L1802.76 187.126L1802.85 240.25L1802.82 296.192C1802.76 343.863 1803.72 396.67 1756.76 424.054C1712.89 449.635 1648.77 446.735 1612.17 409.744C1602.76 400.35 1595.85 388.747 1592.08 375.996C1583.49 347.297 1585 303.711 1585.05 273.385L1585.22 187.192L1639.93 187.164L1639.98 278.018C1639.83 322.217 1629.96 388.745 1692.84 389.853C1758.15 391.004 1748.29 324.631 1748.13 277.661L1748.14 187.174Z"/><path fill="#FEFEFE" d="M1490.7 481.351C1540.26 480.726 1591.15 481.292 1640.85 481.281L1939.4 481.256L2828.12 481.386C2828.24 485.619 2829.07 496.554 2827.38 499.589C2798.84 500.248 2768.03 499.715 2739.35 499.735L2566.84 499.784L2058.59 499.813L1684.04 499.818L1560.33 499.797C1538.16 499.789 1512.47 500.381 1490.5 499.394C1490.38 493.071 1490.42 487.667 1490.7 481.351Z"/><path fill="#FEFEFE" d="M469.2 12.5C523.673 7.43429 608.697 24.3825 658.61 45.5149C775.531 95.0178 858.622 174.639 907.519 291.205C900.358 293.811 890.724 296.582 883.295 298.926C875.596 281.41 868.955 266.994 859.249 250.351C801.624 151.374 706.711 79.6404 595.765 51.214C532.61 32.4397 447.028 34.3433 383.157 48.8498C280.603 72.1424 178.542 140.053 122.68 230.182C116.548 227.497 106.28 221.412 100.112 218.004C107.585 204.311 133.127 172.49 143.748 161.142C231.467 67.4194 341.856 17.9165 469.2 12.5Z"/><path fill="#FEFEFE" d="M1797.98 531.277C1805.76 530.768 1812.58 531.015 1819.99 533.529C1831.88 537.612 1841.67 546.243 1847.21 557.532C1853.49 570.507 1854.46 585.415 1849.93 599.096C1842.38 621.247 1825.57 629.499 1805.97 639.175C1817.6 651.523 1841.83 681.77 1851.84 690.306C1860.27 677.563 1869.32 656.227 1874.91 641.881C1879.44 643.666 1888.08 648.405 1892.72 650.783C1882.19 673.861 1878.15 683.66 1865.01 706.712C1879.79 722.463 1894.79 740.153 1909.61 756.352L1908.64 757.658L1879.45 757.508L1851.66 725.106C1829.25 749.26 1801.64 767.313 1767.43 756.524C1752.22 751.706 1739.58 740.973 1732.37 726.741C1724.86 712.153 1723.26 692.372 1728.55 676.894C1736.46 653.773 1752.48 643.329 1772.79 632.924C1756.95 608.789 1744.22 579.795 1762.65 552.509C1771.3 539.705 1783.06 533.995 1797.98 531.277ZM1802.22 736.523C1818.59 729.673 1826.32 723.059 1838.16 709.531C1831.86 702.104 1789.34 650.249 1783.45 648.768C1761.84 659.704 1746.91 673.519 1747.49 699.701C1748.13 728.816 1775.68 743.402 1802.22 736.523ZM1804.02 620.929C1824.61 609.799 1841.19 587.971 1828.22 564.465C1824.92 558.489 1819.32 554.118 1812.72 552.359C1808.91 551.331 1804.68 551.124 1800.77 551.341C1794.68 552.814 1791.05 553.716 1785.68 557.483C1764.84 572.122 1776.8 611.643 1794.67 624.212C1797.78 624.619 1801.12 622.424 1804.02 620.929Z"/><path fill="#FEFEFE" d="M2316.64 187.245L2447.58 187.172C2471.76 187.183 2497.91 186.678 2521.95 187.232L2522.79 237.583C2499.64 237.593 2469.84 236.786 2446.98 237.884C2447.26 303.931 2447.17 369.98 2446.69 436.027C2428.61 436.24 2410.52 436.285 2392.43 436.159L2392.08 425.631L2391.96 237.867C2387.78 237.511 2382.57 237.813 2378.31 237.935C2358.92 236.55 2336.51 238.53 2316.98 237.495C2316.85 220.812 2316.57 203.909 2316.64 187.245Z"/><path fill="#FEFEFE" d="M1821.11 187.292C1826.82 187.05 1832.88 187.121 1838.61 187.169C1901.18 187.688 1963.98 186.313 2026.52 187.293C2026.53 204.046 2026.65 220.798 2026.9 237.549C2004.7 238.703 1973.59 237.749 1950.7 237.766L1950.53 361.25L1950.94 436.286L1897.07 436.198L1896.8 237.832C1872.3 237.061 1845.81 238.004 1820.91 237.557C1820.83 220.802 1820.9 204.046 1821.11 187.292Z"/><path fill="#FEFEFE" d="M2118.22 534.738C2132.25 534.09 2150.89 534.565 2165.1 534.569L2252.69 534.618L2252.54 556.759C2216.85 557.923 2174.86 556.884 2138.69 556.875L2138.72 633.089C2172.16 633.486 2206.38 633.164 2239.88 633.195C2239.85 640.539 2240.35 648.408 2240.69 655.784C2207.79 656.493 2172.17 655.88 2139.07 655.912C2137.39 660.971 2138.53 725.138 2138.54 733.603L2253.97 733.567L2254 756.017L2118.25 755.96L2118.22 534.738Z"/><path fill="#FEFEFE" d="M2571.59 534.544C2577.92 534.44 2584.69 534.139 2590.92 535.071L2591.15 697.846C2591.16 706.955 2590.22 750.27 2591.86 755.926L2571.69 755.998L2572.1 656.271L2469.74 656.379L2469.88 755.914L2450.27 756.081L2450.41 534.602L2469.63 534.579L2469.68 633.079L2571.82 633.032L2571.59 534.544Z"/><path fill="#FEFEFE" d="M2345.62 531.262C2349.02 530.972 2352.44 530.803 2355.85 530.754C2387.59 530.57 2406.97 544.38 2428.54 565.744C2423.6 571.668 2418.84 577.733 2414.24 583.929C2407.32 576.556 2391.93 563.186 2382.96 559.818C2277.93 520.393 2244.88 691.6 2329.03 731.967C2347.02 740.594 2366.87 737.605 2384.87 730.785C2397.81 723.034 2405.67 716.006 2415.97 705.304C2420.43 710.306 2425.1 716.103 2429.46 721.272C2413.21 739.843 2395.48 754.223 2370.48 758.497C2347.55 762.572 2323.95 757.329 2304.91 743.931C2232.47 692.601 2247.96 547.18 2345.62 531.262Z"/><path fill="#AEE95B" d="M1444.05 512.548C1451.69 513.206 1459.04 513.101 1466.69 513.089C1466.99 560.366 1466.99 607.644 1466.67 654.92C1537.53 654.93 1610.96 653.948 1681.61 654.991L1681.66 675.421L1471.16 675.454L1444.13 675.386C1444.39 624.025 1445.8 563.315 1444.05 512.548Z"/><path fill="#AEE95B" d="M2852.25 513.098L2874.36 512.959L2874.52 675.352L2661.09 675.37L2636.75 675.362L2636.72 654.797L2852.23 654.677L2852.25 513.098Z"/><path fill="#AEE95B" d="M983.947 434.096L1270.5 434.073C1284.1 450.809 1306.04 473.739 1321.29 489.017C1348.22 489.675 1377.39 489.113 1404.5 489.114L1404.27 506.11L1314.54 506.055C1297.69 488.416 1280.7 469.329 1264.16 451.28C1233.78 450.443 1199.65 451.191 1169.03 451.194L983.884 451.212L983.947 434.096Z"/><path fill="#AEE95B" d="M3216.1 431.166C3241.91 430.016 3279.68 430.854 3305.97 431.222L3306.04 447.875C3279.24 448.555 3250 447.986 3222.93 448.077C3206.68 464.395 3186.94 485.811 3171.33 502.88C3109.03 504.385 3038.35 502.941 2975.5 502.948L2885.23 502.839L2885.03 486.199C2915.06 485.14 2950.69 486.059 2981.06 486.065L3165.49 486.086L3216.1 431.166Z"/><path fill="#FEFEFE" d="M1974.89 534.578L2108.52 534.557L2108.81 557.553C2090.8 557.543 2069.2 556.973 2051.48 557.626L2051.63 755.981C2046.43 755.989 2036.81 755.753 2032.03 756.473C2033.28 743.283 2032.39 708.568 2032.4 694.164L2032.64 568.394L2032.76 557.421C2014.37 557.399 1993.15 557.894 1974.99 557.292L1974.89 534.578Z"/><path fill="#131833" fill-opacity="0.015686275" d="M2378.31 237.935C2382.57 237.813 2387.78 237.511 2391.96 237.867L2392.08 425.631C2384.5 418.095 2386.16 372.723 2386.12 360.802C2385.94 333.614 2385.96 306.424 2386.18 279.236C2386.3 271.376 2387.32 246.75 2386.23 240.079C2383.36 239.427 2381.12 238.802 2378.31 237.935Z"/><path fill="#FEFEFE" d="M914.935 317.178L915.854 317.605C920.483 322.752 925.77 347.302 927.744 355.525L906.221 361.192L904.123 360.679C900.327 354.943 894.307 331.215 892.293 323.871C899.658 321.855 907.568 319.36 914.935 317.178Z"/><path fill="#131833" fill-opacity="0.011764706" d="M2590.92 535.071L2593.26 536.617C2594.72 569.234 2594.61 601.313 2594.52 633.944C2594.49 643.567 2595.98 653.423 2596.24 663.114C2596.87 688.419 2596.45 713.739 2594.99 739.01C2594.68 744.72 2595.41 751.713 2591.86 755.926C2590.22 750.27 2591.16 706.955 2591.15 697.846L2590.92 535.071Z"/><path fill="#131833" fill-opacity="0.011764706" d="M2032.03 756.473C2029.8 756.474 2029.39 756.54 2027.5 755.393C2023.71 742.505 2028.52 694.827 2027.53 678.321C2025.88 651.028 2026.44 620.926 2029.73 593.789C2030.77 585.217 2029.74 576.718 2032.64 568.394L2032.4 694.164C2032.39 708.568 2033.28 743.283 2032.03 756.473Z"/><path fill="#131833" fill-opacity="0.019607844" d="M1438.69 676.48C1439.81 636.886 1439.17 597.237 1439.3 557.636C1439.32 551.83 1438.14 515.164 1440.44 512.631L1444.05 512.548C1445.8 563.315 1444.39 624.025 1444.13 675.386L1471.16 675.454C1467.35 677.348 1444.18 676.531 1438.69 676.48Z"/><path fill="#FEFEFE" d="M926.999 383.164C929.265 382.692 929.575 382.621 931.746 383.385C935.507 387.936 935.898 402.589 936.408 408.934L916.945 409.754C913.102 409.672 914.191 410.222 911.349 408.166C908.976 403.057 908.342 394.058 907.538 388.156L926.999 383.164Z"/><path fill="#FEFEFE" d="M912.558 456.783C919.551 456.811 931.745 458.527 939.051 459.337L937.409 480.762C933.054 481.667 917.163 479.186 911.953 478.503C912.092 471.261 912.294 464.021 912.558 456.783Z"/><path fill="#FEFEFE" d="M860.373 648.725L882.133 661.084C878.775 667.638 875.229 672.736 871.136 678.797C866.935 679.04 853.845 669.024 849.668 666.111C853.062 660.21 856.632 654.412 860.373 648.725Z"/><path fill="#FEFEFE" d="M30.9644 457.717C39.3481 458.33 48.4549 459.562 56.8617 460.532C56.808 466.359 57.4059 471.852 57.939 477.647C50.9052 478.124 39.1562 477.887 31.7835 477.964C31.0348 471.633 31.084 464.18 30.9644 457.717Z"/><path fill="#FEFEFE" d="M34.2469 504.121L60.4583 503.958C60.9817 508.182 62.7551 517.504 60.7315 520.698L37.4656 522.719L34.2469 504.121Z"/><path fill="#FEFEFE" d="M108.398 650.677C112.188 651.66 116.517 660.176 118.646 663.731L99.5949 677.657L98.2959 677.514C94.738 674.347 91.8285 668.778 89.311 664.584C95.5544 660.377 102.281 655.185 108.398 650.677Z"/><path fill="#FEFEFE" d="M52.2772 315.968C56.6921 316.958 70.702 323.581 75.5184 325.753C74.072 331.193 73.1215 334.329 71.0263 339.55L47.7092 330.2C49.4089 325.807 50.881 320.525 52.2772 315.968Z"/><path fill="#FEFEFE" d="M68.0724 276.454C75.4376 280.466 82.7354 284.601 89.9627 288.857C88.1025 293.328 86.4253 297.1 84.2945 301.451C79.0121 299.793 67.6417 292.886 62.3365 289.868L68.0724 276.454Z"/><path fill="#FEFEFE" d="M877.83 613.398C881.554 613.948 897.73 622.375 899.563 625.799C897.575 629.931 896.726 631.927 895.291 636.319C889.889 635.188 877.731 627.82 872.38 624.802C875.058 620.352 875.945 618.136 877.83 613.398Z"/><path fill="#FEFEFE" d="M909.337 504.884C917.705 506.314 926.395 507.224 934.843 508.227C933.931 512.875 933.298 517.618 932.614 522.309C924.586 520.686 915.115 518.043 907.063 516.019L909.337 504.884Z"/><path fill="#FEFEFE" d="M34.3721 394.346C41.9557 395.935 52.2232 398.935 59.929 400.966L58.6799 412.944C54.4876 412.845 38.1233 407.58 33.298 406.118L34.3721 394.346Z"/><path fill="#FEFEFE" d="M892.256 577.315C897.492 578.23 910.126 585.281 915.358 588.106L911.307 599.856C905.478 597.923 894.1 590.939 888.315 587.617L892.256 577.315Z"/><path fill="#FEFEFE" d="M61.3036 547.434C67.0115 546.456 73.2017 551.311 70.562 556.214C66.9218 558.627 56.5109 560.695 51.7551 561.843C48.5451 562.606 49.8608 562.69 46.7815 561.536C44.1492 558.642 43.4387 553.42 42.5163 549.448C48.7699 548.697 55.0329 548.026 61.3036 547.434Z"/><path fill="#FEFEFE" d="M41.586 355.413C47.2976 356.482 59.3947 360.376 65.4387 362.125C64.9185 366.215 64.2159 370.383 63.5778 374.464C55.2027 371.941 47.0683 370.059 38.5741 368.047C39.6378 364.182 40.6487 359.383 41.586 355.413Z"/><path fill="#FEFEFE" d="M90.9265 616.66C94.0323 617.234 96.4471 623.14 97.837 625.816C90.8361 630.551 83.9384 635.437 77.1489 640.47C74.7307 639.248 71.4047 631.378 69.9907 628.526C77.6462 624.497 83.5379 621.172 90.9265 616.66Z"/><path fill="#FEFEFE" d="M75.5492 583.11C78.75 583.506 81.0408 584.939 81.6998 588.109C79.3747 593.932 67.0585 599.654 61.0544 603.12C58.6017 601.281 55.3503 592.254 53.9019 588.837L75.5492 583.11Z"/><path fill="#FEFEFE" d="M87.7229 242.066C94.3183 245.369 101.76 249.659 108.325 253.226C106.391 256.793 104.355 260.846 101.972 264.082C95.5209 260.948 86.0491 255.391 79.5422 251.817C82.4857 247.699 83.9042 245.481 87.7229 242.066Z"/><path fill="#FEFEFE" d="M900.671 542.853C906.411 543.188 920.753 546.861 926.972 548.289C926.23 551.614 924.792 555.526 923.689 558.81L922.72 560.265C918.244 561.494 905.44 553.871 902.13 550.508C899.994 548.338 900.654 545.642 900.671 542.853Z"/></svg>